<mxfile host="app.diagrams.net" modified="2023-02-07T08:37:10.752Z" agent="5.0 (Macintosh; Intel Mac OS X 10_15_7) AppleWebKit/537.36 (KHTML, like Gecko) Chrome/109.0.0.0 Safari/537.36" etag="Hx4rDCABdaWJMLrg4e4o" version="20.8.16" type="github">
  <diagram id="R2lEEEUBdFMjLlhIrx00" name="Page-1">
    <mxGraphModel dx="681" dy="334" grid="1" gridSize="10" guides="1" tooltips="1" connect="1" arrows="1" fold="1" page="1" pageScale="1" pageWidth="850" pageHeight="1100" math="0" shadow="0" extFonts="Permanent Marker^https://fonts.googleapis.com/css?family=Permanent+Marker">
      <root>
        <mxCell id="0" />
        <mxCell id="1" parent="0" />
        <mxCell id="iLNsGUHVDQiWmfw97gEN-4" value="Brands" style="swimlane;childLayout=stackLayout;horizontal=1;startSize=30;horizontalStack=0;rounded=1;fontSize=14;fontStyle=1;strokeWidth=2;resizeParent=0;resizeLast=1;shadow=0;dashed=0;align=center;fillColor=none;" vertex="1" parent="1">
          <mxGeometry x="130" y="290" width="160" height="120" as="geometry" />
        </mxCell>
        <mxCell id="iLNsGUHVDQiWmfw97gEN-5" value="+_id&#xa;+brandName&#xa;+homepage&#xa;+brandType&#xa;+brandProducts" style="align=left;strokeColor=none;fillColor=none;spacingLeft=4;fontSize=12;verticalAlign=top;resizable=0;rotatable=0;part=1;strokeWidth=2;" vertex="1" parent="iLNsGUHVDQiWmfw97gEN-4">
          <mxGeometry y="30" width="160" height="90" as="geometry" />
        </mxCell>
        <mxCell id="iLNsGUHVDQiWmfw97gEN-6" value="Carts" style="swimlane;childLayout=stackLayout;horizontal=1;startSize=30;horizontalStack=0;rounded=1;fontSize=14;fontStyle=1;strokeWidth=2;resizeParent=0;resizeLast=1;shadow=0;dashed=0;align=center;fillColor=none;" vertex="1" parent="1">
          <mxGeometry x="490" y="290" width="160" height="120" as="geometry" />
        </mxCell>
        <mxCell id="iLNsGUHVDQiWmfw97gEN-7" value="+_id&#xa;+userID&#xa;+cartItems&#xa;+cartAmount" style="align=left;strokeColor=none;fillColor=none;spacingLeft=4;fontSize=12;verticalAlign=top;resizable=0;rotatable=0;part=1;strokeWidth=2;" vertex="1" parent="iLNsGUHVDQiWmfw97gEN-6">
          <mxGeometry y="30" width="160" height="90" as="geometry" />
        </mxCell>
        <mxCell id="iLNsGUHVDQiWmfw97gEN-8" value="Payments" style="swimlane;childLayout=stackLayout;horizontal=1;startSize=30;horizontalStack=0;rounded=1;fontSize=14;fontStyle=1;strokeWidth=2;resizeParent=0;resizeLast=1;shadow=0;dashed=0;align=center;fillColor=none;" vertex="1" parent="1">
          <mxGeometry x="310" y="290" width="160" height="120" as="geometry" />
        </mxCell>
        <mxCell id="iLNsGUHVDQiWmfw97gEN-9" value="+_id&#xa;+userID&#xa;+type&#xa;+" style="align=left;strokeColor=none;fillColor=none;spacingLeft=4;fontSize=12;verticalAlign=top;resizable=0;rotatable=0;part=1;strokeWidth=2;" vertex="1" parent="iLNsGUHVDQiWmfw97gEN-8">
          <mxGeometry y="30" width="160" height="90" as="geometry" />
        </mxCell>
        <mxCell id="iLNsGUHVDQiWmfw97gEN-10" value="Orders" style="swimlane;childLayout=stackLayout;horizontal=1;startSize=30;horizontalStack=0;rounded=1;fontSize=14;fontStyle=1;strokeWidth=2;resizeParent=0;resizeLast=1;shadow=0;dashed=0;align=center;fillColor=none;" vertex="1" parent="1">
          <mxGeometry x="130" y="440" width="160" height="140" as="geometry" />
        </mxCell>
        <mxCell id="iLNsGUHVDQiWmfw97gEN-11" value="+_id&#xa;+userID&#xa;+paymentStatus&#xa;+orderStatus&#xa;+amount&#xa;+orderStatus&#xa;+items" style="align=left;strokeColor=none;fillColor=none;spacingLeft=4;fontSize=12;verticalAlign=top;resizable=0;rotatable=0;part=1;strokeWidth=2;" vertex="1" parent="iLNsGUHVDQiWmfw97gEN-10">
          <mxGeometry y="30" width="160" height="110" as="geometry" />
        </mxCell>
        <mxCell id="iLNsGUHVDQiWmfw97gEN-14" value="Products" style="swimlane;childLayout=stackLayout;horizontal=1;startSize=30;horizontalStack=0;rounded=1;fontSize=14;fontStyle=1;strokeWidth=2;resizeParent=0;resizeLast=1;shadow=0;dashed=0;align=center;fillColor=none;" vertex="1" parent="1">
          <mxGeometry x="360" y="440" width="160" height="140" as="geometry" />
        </mxCell>
        <mxCell id="iLNsGUHVDQiWmfw97gEN-15" value="+_id&#xa;+pruductName&#xa;+brand&#xa;+price&#xa;+quantity&#xa;+feature&#xa;+displayPicture" style="align=left;strokeColor=none;fillColor=none;spacingLeft=4;fontSize=12;verticalAlign=top;resizable=0;rotatable=0;part=1;strokeWidth=2;" vertex="1" parent="iLNsGUHVDQiWmfw97gEN-14">
          <mxGeometry y="30" width="160" height="110" as="geometry" />
        </mxCell>
      </root>
    </mxGraphModel>
  </diagram>
</mxfile>
